<?xml version="1.0" encoding="utf-8"?><svg viewBox="0 0 800 800" xmlns="http://www.w3.org/2000/svg" xmlns:xlink="http://www.w3.org/1999/xlink"><style>:root>svg{display:none}:root>svg:target{display:block}</style><svg viewBox="0 -4.5 20 20" id="arrow-down" xmlns="http://www.w3.org/2000/svg"><path d="M.292.366c-.39.405-.39 1.06 0 1.464l8.264 8.563c.78.81 2.047.81 2.827 0l8.325-8.625c.385-.4.39-1.048.01-1.454a.976.976 0 00-1.425-.011l-7.617 7.893a.975.975 0 01-1.414 0L1.705.366a.974.974 0 00-1.413 0" fill-rule="evenodd"/></svg><svg viewBox="0 -6.5 36 36" id="right-arrow" xmlns="http://www.w3.org/2000/svg"><path d="M25.108.29L35.65 10.742l.059.054c.18.179.277.408.291.642v.124a.984.984 0 01-.291.642l-.052.044L25.108 22.71a1.005 1.005 0 01-1.413 0 .985.985 0 010-1.402l9.008-8.934H.999a.994.994 0 01-.999-.99.995.995 0 011-.992h31.468l-8.773-8.7a.985.985 0 010-1.402 1.005 1.005 0 011.413 0zm10.007 11.093L24.401 22.009 35.002 11.5v-.004l-.059-.053-.06-.06h.232z"/></svg></svg>